<svg width="22px" height="38px" id="d5ff07f9-28ab-4b1e-a485-41b1ea79d6d8" data-name="Layer 1" xmlns="http://www.w3.org/2000/svg" viewBox="0 0 22 38"><title>chevron-right-home</title><g id="53f0428e-e98d-4621-a424-e51fb28d40b7" data-name="Home-Page"><g id="fb12c117-18bb-4561-9db5-22fdebb4d80c" data-name="home-1"><g id="81973ee4-bfda-4f26-ae28-d8b5275ce90a" data-name="Path"><path id="73fba73c-1dc4-4428-bc1b-bbc7d2641a1c" data-name="path-1" d="M1.28,36.64a1.14,1.14,0,0,1,.07-1.57L18.33,19,1.35,2.93a1.14,1.14,0,0,1-.07-1.57A1,1,0,0,1,2.8,1.29L20.65,18.18a1.14,1.14,0,0,1,0,1.64L2.8,36.71a1,1,0,0,1-1.52-.07Z" transform="translate(0 0)" fill="#fff"/><path d="M17.61,19,1,3.29A1.64,1.64,0,0,1,.91,1,1.55,1.55,0,0,1,3.14.93L21,17.82a1.64,1.64,0,0,1,0,2.37L3.14,37.07A1.55,1.55,0,0,1,.91,37h0A1.64,1.64,0,0,1,1,34.7Z" transform="translate(0 0)" fill="none" stroke="#fff"/></g></g></g></svg>