<svg id="ed2daf4f-6b57-4db1-a2ae-579f19f5106c" data-name="Circle copy 4" xmlns="http://www.w3.org/2000/svg" viewBox="0 0 85.5 85"><defs><style>.cc1c19ab-3251-4bcb-b2b7-41cd00b01e66{fill:#fff;}.\36 a50ac0c-8a4e-4052-909e-1123a3cf5691,.ecdc72a4-e2ea-4e6a-a09f-6a8c429b7b9a{fill:#303139;}.\37 5acf007-eacd-4b48-aec6-1594c0f6c402{isolation:isolate;}.\36 a50ac0c-8a4e-4052-909e-1123a3cf5691{fill-rule:evenodd;}</style></defs><title>YouTube Icon</title><g id="212139dc-6ab9-4c96-b162-2623cfe81deb" data-name="White Circle"><ellipse class="cc1c19ab-3251-4bcb-b2b7-41cd00b01e66" cx="42.75" cy="42.5" rx="42.75" ry="42.5"/></g><g id="522878f5-8908-46bb-82c8-c183c8917f1e" data-name="Dark Stroke Circle"><path class="ecdc72a4-e2ea-4e6a-a09f-6a8c429b7b9a" d="M43.25,10.72a31.78,31.78,0,1,1-32,31.78,31.93,31.93,0,0,1,32-31.78m0-6a37.78,37.78,0,1,0,38,37.78,37.89,37.89,0,0,0-38-37.78h0Z" transform="translate(-0.5)"/></g><g id="81ee06ba-5aef-4eb1-a64f-e9a3f56a75c3" data-name="YouTube Icon" class="75acf007-eacd-4b48-aec6-1594c0f6c402"><g id="39c9c661-410b-47a1-9e4c-4e81eeb83918" data-name="YouTube Icon"><path class="6a50ac0c-8a4e-4052-909e-1123a3cf5691" d="M64.16,40.06a47.66,47.66,0,0,0-.67-6.88,4.75,4.75,0,0,0-4.3-3.93c-2.42-.29-4.85-0.47-7.28-0.65a129.71,129.71,0,0,0-23.28.58A5,5,0,0,0,24,33.06a20,20,0,0,0-.56,3.74c-0.11,3.14-.19,6.29-0.12,9.43A35.7,35.7,0,0,0,24,51.82a4.82,4.82,0,0,0,4.31,3.93,127.94,127.94,0,0,0,16,.91,134.46,134.46,0,0,0,14.51-.84,5.05,5.05,0,0,0,4.64-3.76,11.72,11.72,0,0,0,.46-2.52C64,46.38,64.21,43.22,64.16,40.06Zm-13,3a2.74,2.74,0,0,1-.64.44l-9.19,4.84a3.38,3.38,0,0,1-.53.25,1,1,0,0,1-1.41-.87c-0.07-.83,0-1.66,0-2.5s0-1.84,0-2.76c0-1.58,0-3.16,0-4.74,0-1.41.7-1.8,2-1.13l9.19,4.84a2.76,2.76,0,0,1,.64.44A0.76,0.76,0,0,1,51.16,43.09Z" transform="translate(-0.5)"/></g></g></svg>