<svg width="20px" height="20px" id="b5021100-c758-4e66-b473-96cc40a6ceda" data-name="Layer 1" xmlns="http://www.w3.org/2000/svg" viewBox="0 0 20 20"><title>icon-video</title><g id="f5498629-38a0-4002-ad67-f64f48ef5d6f" data-name="Symbols"><g id="80f51996-1dd0-40f1-84af-fe62b3954210" data-name="Video-Time-Code-White"><path id="66c1c045-c0da-482c-ac11-62758d50b7ae" data-name="Fill-1" d="M15.72,13.15a.69.69,0,0,1-.11.4.47.47,0,0,1-.39.21h0a.67.67,0,0,1-.41-.16l-2-1.57a1.62,1.62,0,0,1-.55-1.15V9.14A1.62,1.62,0,0,1,12.84,8l2-1.57a.67.67,0,0,1,.41-.16c.25,0,.5.19.5.6Zm-4-.28a.86.86,0,0,1-.86.86H5.14a.86.86,0,0,1-.86-.86V7.14a.86.86,0,0,1,.86-.86h5.72a.86.86,0,0,1,.86.86ZM10,0A10,10,0,1,0,20,10,10,10,0,0,0,10,0Z" transform="translate(0 0)" fill="#fff"/></g></g></svg>