<svg id="05fe3cc7-f028-494c-95ce-51e31952c779" data-name="Circle copy 2" xmlns="http://www.w3.org/2000/svg" viewBox="0 0 85.47 85"><defs><style>.\34 bb9a855-60f6-4bc6-bfba-41183cf6521a{fill:#fff;}.\33 728966b-c48a-4771-a356-da0755da5048,.cccc855b-2be2-44f0-8bba-22d4fe67c037{fill:#303139;}.\35 0b169c3-07b2-4739-9f7b-dfbb0d9281f0{isolation:isolate;}.\33 728966b-c48a-4771-a356-da0755da5048{fill-rule:evenodd;}</style></defs><title>Medium Icon</title><g id="0612803c-cf15-4826-871d-b8a099d2c195" data-name="White Circle"><ellipse class="4bb9a855-60f6-4bc6-bfba-41183cf6521a" cx="42.73" cy="42.5" rx="42.73" ry="42.5"/></g><g id="4af577df-c6c3-45dd-9976-4584015f46fc" data-name="Dark Stroke Circle"><path class="cccc855b-2be2-44f0-8bba-22d4fe67c037" d="M42.8,10.72a31.78,31.78,0,1,1-32,31.78,31.92,31.92,0,0,1,32-31.78m0-6a37.78,37.78,0,1,0,38,37.78,37.88,37.88,0,0,0-38-37.78h0Z" transform="translate(-0.06)"/></g><g id="037a9b9b-6448-4498-b58f-bff957feb7e4" data-name="Medium Icon" class="50b169c3-07b2-4739-9f7b-dfbb0d9281f0"><g id="51ffc907-d5d4-43ec-ae49-5982ea13b7cd" data-name="Medium Icon"><path class="3728966b-c48a-4771-a356-da0755da5048" d="M61.68,32.49l0,0h0l-12-5.89A1.48,1.48,0,0,0,49,26.45a1.39,1.39,0,0,0-1.17.62l-6.93,11,8.7,13.83,12.1-19.24A0.14,0.14,0,0,0,61.68,32.49ZM37.11,48.12L48.5,53.7,37.11,35.58V48.12Zm13.11,6.41,9.38,4.59c1.22,0.6,2.21.18,2.21-.93V36.11ZM23.37,26.76a1.37,1.37,0,0,0-.6-0.15,0.91,0.91,0,0,0-.88,1V52.49A2.14,2.14,0,0,0,23,54.24l10.35,5.07a1.7,1.7,0,0,0,.75.19,1.14,1.14,0,0,0,1.09-1.31V32.62a0.13,0.13,0,0,0-.07-0.11Z" transform="translate(-0.06)"/></g></g></svg>