<svg id="17f731d3-ba88-40fc-9ac2-5479c9e0ec47" data-name="Circle" xmlns="http://www.w3.org/2000/svg" viewBox="0 0 85.5 85"><defs><style>.\37 6739bdd-bce6-48a2-8cc1-1e7c30a4ac96{fill:#fff;}.b1f903bd-4959-4d51-a4ca-c654156f46bf,.e5bef156-b832-49b4-a106-1a8ff4ed29d7{fill:#303139;}.\34 98c2892-315b-4148-ab43-df6f801a5b75{isolation:isolate;}.b1f903bd-4959-4d51-a4ca-c654156f46bf{fill-rule:evenodd;}</style></defs><title>facebook icon</title><g id="2a2c8e43-610a-428b-ac7a-a08ea10f1aec" data-name="White Circle"><ellipse class="76739bdd-bce6-48a2-8cc1-1e7c30a4ac96" cx="42.75" cy="42.5" rx="42.75" ry="42.5"/></g><g id="0d1a135a-0e52-41a1-86b8-1aef4e753613" data-name="Dark Stroke Circle"><path class="e5bef156-b832-49b4-a106-1a8ff4ed29d7" d="M42.75,10.72a31.78,31.78,0,1,1-32,31.78,31.93,31.93,0,0,1,32-31.78m0-6a37.78,37.78,0,1,0,38,37.78,37.89,37.89,0,0,0-38-37.78h0Z"/></g><g id="120f2803-bbca-4f77-8cdd-69106530c827" data-name="facebook icon" class="498c2892-315b-4148-ab43-df6f801a5b75"><g id="ef1cb07a-2aee-44a0-9230-11b80569f855" data-name="facebook icon"><path class="b1f903bd-4959-4d51-a4ca-c654156f46bf" d="M45.31,37.1V31.86c0-2,.42-3.17,3-3.17,2.42,0,4.64,0,4.64,0L53.16,22A45.12,45.12,0,0,0,48,21.73c-7.27,0-10.42,4.42-10.42,9.24V37.1H32.28v7.18h5.34V64.23h7.69V44.29h7.55L53.2,37.1H45.31Z"/></g></g></svg>