<svg width="14px" height="14px" id="8661f08b-03b8-480f-996e-b4ead2817989" data-name="Layer 1" xmlns="http://www.w3.org/2000/svg" viewBox="0 0 13.14 13.11"><title>accordion_plus</title><g id="be8d8c9b-4173-41e9-a2fa-94b1fab1d444" data-name="Desktop"><g id="b2e5d557-2ca1-4e18-8d1e-04b28a6d3b97" data-name="FINANCIALS"><g id="b586a13c-2c18-48ad-8be6-b4100da7a582" data-name="2017-Financials"><g id="917f90ee-6ef9-48dc-9d4e-f3213e9cdfda" data-name="Acc-1"><g id="afe3367b-38ce-4bcb-a65c-1d2931e8e711" data-name="+" style="isolation:isolate"><g style="isolation:isolate"><path d="M5.36,24.24H1a.59.59,0,0,1-.57-.57v-2.1A.59.59,0,0,1,1,21H5.36V16.59a.56.56,0,0,1,.57-.54H8a.56.56,0,0,1,.57.54V21H13a.56.56,0,0,1,.54.57v2.1a.56.56,0,0,1-.54.57H8.6v4.38a.56.56,0,0,1-.57.54H5.93a.56.56,0,0,1-.57-.54Z" transform="translate(-0.41 -16.05)" fill="#fff"/></g></g></g></g></g></g></svg>