<svg width="30px" height="30px" id="3e1696b3-7c7e-4ce5-94ee-ba07f990e3c6" data-name="3b738121-b32a-4dcd-a3b2-095997c953c8" xmlns="http://www.w3.org/2000/svg" viewBox="0 0 30 30"><title>btn_play</title><g id="08af5200-46de-4f92-a0d0-79a21ed0b5cf" data-name="237333f4-e148-44a3-8ce4-4bd572cf67ea"><g id="e885a000-70c4-4445-b48b-01f5a9479c67" data-name="c255b05b-1b0e-4301-9ff8-f007493d8dbd"><polygon id="97c03b2a-e715-4265-b4bb-f1fa87f02855" data-name="0955193f-1cee-4b69-8ec9-e97915224c32" points="0 0 30 0 30 30 0 30 0 0" fill="#fff"/></g></g><g id="276c524e-8fad-40f4-8c49-a8970aa758fe" data-name="f3a59f2e-c23c-4dae-9ef6-d18af1ac7453"><g id="bed73293-2105-4c09-9a54-c486ec19957e" data-name="648c4412-bff6-489d-a0b5-2f624d0b8959"><g id="17e91f23-5219-45d4-8c7d-4be79e2ce121" data-name="6122e6b2-760f-4dd2-8c2e-b03f4f842e95"><path id="896d0a1b-b182-4fce-b6d3-3e9d4cd02ed3" data-name="47fb229d-2954-4981-8f38-2859855ab47c" d="M23.4,16,11,22.7a1.39,1.39,0,0,1-1.7-.4,1.42,1.42,0,0,1-.2-.6V8.3a1.11,1.11,0,0,1,1.3-1.1.76.76,0,0,1,.5.2L23.4,14a1.06,1.06,0,0,1,.5,1.5.82.82,0,0,1-.5.5M15,0A15,15,0,1,0,30,15,15,15,0,0,0,15,0" transform="translate(0 0)" fill="#fff"/></g></g></g></svg>