<svg width="30px" height="30px" id="093e1260-ead7-4629-80bb-36c24d86e4fe" data-name="edf270d5-ea40-4273-995b-414e7f8898d5" xmlns="http://www.w3.org/2000/svg" viewBox="0 0 30 30"><title>btn_pause</title><g id="88401a63-f69e-4564-9a1c-d0755c37dd58" data-name="c337fc27-7c26-4fc7-860b-5e8cf4e5cd6a"><g id="7649cee7-e6aa-4298-8ea2-cc924aa9570b" data-name="f1d80cc6-c93a-4221-a98f-bd32c1bc56c6"><polygon id="a2112342-319d-4fee-8972-36376acd9339" data-name="7c6f8887-529f-40e6-b29f-de780a6335a0" points="0 0 30 0 30 30 0 30 0 0" fill="#fff"/></g></g><g id="b1708764-494c-406d-ba75-e23a55ceda9f" data-name="9e5ad2f0-403e-4de4-bfba-7b9ec78dff36"><g id="c3613e26-b391-4f1e-9a3d-44ddcaf561b0" data-name="dffff1a6-e031-47d9-99b7-2651590df1fd"><g id="f9f715e0-a012-4e0d-b07e-ed59463648b4" data-name="e703dc42-ad06-4995-ad03-5ac0d4615ce4"><path id="02603ba3-5793-4d3e-806e-8b65064b31df" data-name="4b86137d-fb4d-4ae8-9ca3-86e6ff4772ab" d="M22.1,21.4a.68.68,0,0,1-.7.7H17.2a.68.68,0,0,1-.7-.7V8.6a.68.68,0,0,1,.7-.7h4.3a.68.68,0,0,1,.7.7Zm-8.6,0a.68.68,0,0,1-.7.7H8.6a.68.68,0,0,1-.7-.7V8.6a.68.68,0,0,1,.7-.7h4.3a.68.68,0,0,1,.7.7h0ZM15,0A15,15,0,1,0,30,15,15,15,0,0,0,15,0Z" transform="translate(0 0)" fill="#fff"/></g></g></g></svg>