
<svg width="16px" height="28px" viewBox="0 0 16 28" version="1.1" xmlns="http://www.w3.org/2000/svg" xmlns:xlink="http://www.w3.org/1999/xlink">
    <!-- Generator: Sketch 48.2 (47327) - http://www.bohemiancoding.com/sketch -->
    <desc>Created with Sketch.</desc>
    <defs></defs>
    <g id="Mobile" stroke="none" stroke-width="1" fill="none" fill-rule="evenodd">
        <g id="CEO-Letter-Copy" transform="translate(-43.000000, -5194.000000)" fill="#FFFFFF">
            <g id="Group" transform="translate(34.000000, 5013.000000)">
                <g id="Accolades-Copy-3">
                    <path d="M9.22560582,208.719023 C8.90493388,208.366289 8.92900577,207.819464 9.27933771,207.497422 L22.8666289,194.999565 L9.27976757,182.502142 C8.92900577,182.180099 8.90493388,181.633274 9.22560582,181.280972 C9.54627776,180.928671 10.0900445,180.904463 10.4399466,181.226506 L24.7205942,194.361964 C24.8985542,194.525795 25,194.757061 25,194.999565 C25,195.242502 24.8985542,195.473768 24.7205942,195.637599 L10.4399466,208.773489 C10.2753121,208.924785 10.0672622,208.999568 9.86007201,209 C9.62709052,209 9.39496875,208.9049 9.22560582,208.719023 Z" id="Path-Copy" transform="translate(17.000000, 195.000000) scale(-1, 1) translate(-17.000000, -195.000000) "></path>
                </g>
            </g>
        </g>
    </g>
</svg>