<svg id="d1757757-2b3a-40a9-86f5-732a1477ac51" data-name="Circle copy 3" xmlns="http://www.w3.org/2000/svg" viewBox="0 0 85.5 85"><defs><style>.d0b33fee-0799-468c-adf5-7729a4e13984{fill:#fff;}.\38 38234c1-9646-44e2-9895-e66eb04a0802,.e0bba915-c9db-4d37-983f-c8aac1c37084{fill:#303139;}.\38 d175c69-3fce-4581-8dde-7a6773911d89{isolation:isolate;}.\38 38234c1-9646-44e2-9895-e66eb04a0802{fill-rule:evenodd;}</style></defs><title>LinkedIn Icon</title><g id="077508be-389b-4632-8179-b2608887e6e3" data-name="White Circle"><ellipse class="d0b33fee-0799-468c-adf5-7729a4e13984" cx="42.75" cy="42.5" rx="42.75" ry="42.5"/></g><g id="0e39d1ee-81b0-4307-a149-20faafe99965" data-name="Dark Stroke Circle"><path class="e0bba915-c9db-4d37-983f-c8aac1c37084" d="M43,10.72A31.78,31.78,0,1,1,11,42.5,31.93,31.93,0,0,1,43,10.72m0-6A37.78,37.78,0,1,0,81,42.5,37.89,37.89,0,0,0,43,4.72h0Z" transform="translate(-0.28)"/></g><g id="ba15ea01-55ea-4b61-a556-a74959e0c388" data-name="LinkedIn Icon" class="8d175c69-3fce-4581-8dde-7a6773911d89"><g id="e6f34aa5-97ac-49bc-bf71-b76078b367aa" data-name="LinkedIn Icon"><path class="838234c1-9646-44e2-9895-e66eb04a0802" d="M26.37,56.66H33.7V34.36H26.37v22.3Zm3.71-33a3.86,3.86,0,1,0-.1,7.71h0A3.86,3.86,0,1,0,30.08,23.61ZM51.69,33.83a7.26,7.26,0,0,0-6.61,3.69v0.07h0l0-.07V34.36H37.76c0.1,2.09,0,22.3,0,22.3h7.33V44.2a5.12,5.12,0,0,1,.24-1.81,4,4,0,0,1,3.76-2.71c2.65,0,3.71,2,3.71,5V56.66h7.33V43.87C60.13,37,56.52,33.83,51.69,33.83Z" transform="translate(-0.28)"/></g></g></svg>