<svg width="30px" height="30px" id="a79e4b93-a477-487d-8b7a-37fa8fbb7d38" data-name="Layer 1" xmlns="http://www.w3.org/2000/svg" viewBox="0 0 30 30"><title>icon_article_white</title><circle cx="15" cy="15" r="15" fill="#fff"/><path id="e0b9c0f2-8595-4726-935a-ac411cef2519" data-name="SVGID" d="M19.6,7.4H10.3A1.88,1.88,0,0,0,8.4,9.2h0V22a1.88,1.88,0,0,0,1.8,1.9h9.3a1.88,1.88,0,0,0,1.9-1.8h0V9.2A1.68,1.68,0,0,0,19.6,7.4Z" transform="translate(0 0)" fill="#328abd"/><path d="M11.1,21.2H16V19.8H11.1Zm0-3.3h7.7V16.5H11.1Zm0-3.3h7.7V13.2H11.1Zm0-3.3h7.7V10H11.1Z" transform="translate(0 0)" fill="#fff"/></svg>