<svg width="19px" height="19px" id="498bd8d3-19ce-404f-bece-0d7c9a5321dd" data-name="Layer 1" xmlns="http://www.w3.org/2000/svg" viewBox="0 0 18.09 18.09"><title>icon-close</title><g id="71acbaad-87ee-4f52-9634-dc4f9c12faac" data-name="Mobile"><g id="c0fa64ff-46a0-486f-ac55-4f391bfd2734" data-name="Video-Lightbox"><g id="e837b482-9948-40e3-bc48-28ee5fd03c04" data-name="X"><path id="083d43aa-84a8-4f3c-a067-97b39b52ebc5" data-name="Fill-1" d="M17.74.77a1.2,1.2,0,0,1,0,1.7L2.47,17.74a1.2,1.2,0,0,1-1.7,0l-.42-.42a1.2,1.2,0,0,1,0-1.7L15.62.35a1.2,1.2,0,0,1,1.7,0Z" transform="translate(0 0)" fill="#fff"/><path id="f68af87b-7940-428f-9cb5-e83859d3b3a2" data-name="Fill-3" d="M.77.35a1.2,1.2,0,0,1,1.7,0L17.74,15.62a1.2,1.2,0,0,1,0,1.7l-.42.42a1.2,1.2,0,0,1-1.7,0L.35,2.47a1.2,1.2,0,0,1,0-1.7Z" transform="translate(0 0)" fill="#fff"/></g></g></g></svg>