<svg id="579ce88a-b59d-4035-9aa7-7a48ece4b736" data-name="Circle copy" xmlns="http://www.w3.org/2000/svg" viewBox="0 0 85.5 85"><defs><style>.ddb2cbd8-fd5a-4caa-a5cc-47f38e1532f3{fill:#fff;}.\31 10c2b8e-0fef-4db8-beb1-37c770663009,.\33 43f817f-b9ef-4ec3-9c80-eaaf9a379fac{fill:#303139;}.b3c85f27-2749-42a4-943f-f6ff593b3eec{isolation:isolate;}.\31 10c2b8e-0fef-4db8-beb1-37c770663009{fill-rule:evenodd;}</style></defs><title>Twitter Icon</title><g id="0a7375ae-220e-4ae5-bb58-701ce33a8030" data-name="White Circle"><ellipse class="ddb2cbd8-fd5a-4caa-a5cc-47f38e1532f3" cx="42.75" cy="42.5" rx="42.75" ry="42.5"/></g><g id="276ac33e-af46-4d06-abf9-842e0cb85558" data-name="Dark Stroke Circle"><path class="343f817f-b9ef-4ec3-9c80-eaaf9a379fac" d="M43.22,10.72a31.78,31.78,0,1,1-32,31.78,31.93,31.93,0,0,1,32-31.78m0-6a37.78,37.78,0,1,0,38,37.78,37.89,37.89,0,0,0-38-37.78h0Z" transform="translate(-0.47)"/></g><g id="53c89e2c-a0e2-41bc-ab3f-f8d970e39c07" data-name="Twitter Icon" class="b3c85f27-2749-42a4-943f-f6ff593b3eec"><g id="41263a56-a928-4f52-b61b-22382fcf1ae1" data-name="Twitter Icon"><path class="110c2b8e-0fef-4db8-beb1-37c770663009" d="M60.27,39.75c-0.95-.22-0.79-0.17,0-0.34,2.13-.45,3.5-1.13,3.66-2.18a8.93,8.93,0,0,1-4.38.19c-0.71-.13-0.52-0.06-0.68-0.76a9.12,9.12,0,0,0-8.77-7.52c4.53-1,4.67-3,.4-1.4,1.57-1,1.73-1.89-.55-0.8a8.66,8.66,0,0,0-1.29.9c0.82-1.63.1-1.16-1.3,0.32a22.25,22.25,0,0,0-4.85,8.94c-2.91-3-7.82-5.08-12.75-7-1.1-.43-1.38-0.81-1.11.68A6.48,6.48,0,0,0,32,35a10.28,10.28,0,0,0-1.92.25c-0.57.15-.54,0.12-0.37,0.68,0.51,1.71,2,3,4.41,3.69a4.38,4.38,0,0,0-2.24.69c-0.54.39-.54,0.43-0.21,0.95,0.87,1.35,2.36,2.1,4.69,2.12C33.87,44.62,34.67,47,37.78,47c-4.75,4.77-11.14,4-15.45.6C28.9,57,42,57.71,51,52.55a17.14,17.14,0,0,0,8.19-10.61A6.34,6.34,0,0,0,64.13,40,14.48,14.48,0,0,1,60.27,39.75Z" transform="translate(-0.47)"/></g></g></svg>